<svg width="86" height="110" viewBox="0 0 86 110" fill="none" xmlns="http://www.w3.org/2000/svg">
<path d="M29.9434 23.5742C33.3407 15.5886 44.6594 15.5886 48.0567 23.5742L53.3789 36.085C53.9613 37.4539 54.2257 38.937 54.1524 40.4229L52.4239 75.4102L49.2754 92.8838C48.6208 96.5156 45.989 99.4765 42.459 100.553L41.8701 100.731C39.9992 101.302 38.0009 101.302 36.1299 100.731L35.541 100.553C32.0111 99.4765 29.3792 96.5156 28.7246 92.8838L25.5752 75.4102L23.8477 40.4229C23.7744 38.937 24.0387 37.4539 24.6211 36.085L29.9434 23.5742Z" fill="white" stroke="black" stroke-width="1.78947"/>
<path d="M38.8086 30.6201C38.9311 30.5694 39.0689 30.5694 39.1914 30.6201L45.8506 33.3789C45.9731 33.4297 46.0703 33.5269 46.1211 33.6494L48.8799 40.3086C48.9306 40.4311 48.9306 40.5689 48.8799 40.6914L46.1211 47.3506C46.0703 47.4731 45.9731 47.5703 45.8506 47.6211L39.1914 50.3799C39.0689 50.4306 38.9311 50.4306 38.8086 50.3799L32.1494 47.6211C32.0269 47.5703 31.9297 47.4731 31.8789 47.3506L29.1201 40.6914C29.0694 40.5689 29.0694 40.4311 29.1201 40.3086L31.8789 33.6494C31.9297 33.5269 32.0269 33.4297 32.1494 33.3789L38.8086 30.6201Z" fill="#D9D9D9" stroke="black"/>
<circle id="nunchuk-stick" cx="39" cy="40.5082" r="6.76316" fill="white" stroke="black"/>
<path id="nunchuk-btn-C" d="M68 47.9053C72.7631 47.9053 76.5 51.2443 76.5 55.2197C76.4998 59.195 72.7629 62.5332 68 62.5332C63.2371 62.5332 59.5002 59.195 59.5 55.2197C59.5 51.2443 63.2369 47.9053 68 47.9053Z" fill="white" stroke="black"/>
<path d="M71.4838 53.3845H69.9565C69.9129 53.134 69.8326 52.9121 69.7156 52.7188C69.5985 52.5228 69.4528 52.3567 69.2786 52.2206C69.1043 52.0845 68.9056 51.9824 68.6824 51.9143C68.4618 51.8435 68.2236 51.8081 67.9677 51.8081C67.513 51.8081 67.1101 51.9225 66.7589 52.1512C66.4077 52.3771 66.1327 52.7093 65.9339 53.1476C65.7352 53.5832 65.6358 54.1155 65.6358 54.7444C65.6358 55.3842 65.7352 55.9232 65.9339 56.3616C66.1354 56.7972 66.4104 57.1266 66.7589 57.3499C67.1101 57.5704 67.5117 57.6806 67.9636 57.6806C68.2141 57.6806 68.4482 57.648 68.666 57.5826C68.8865 57.5146 69.0839 57.4152 69.2582 57.2845C69.4351 57.1538 69.5835 56.9932 69.7033 56.8026C69.8258 56.6121 69.9102 56.3942 69.9565 56.1492L71.4838 56.1574C71.4267 56.5549 71.3028 56.9279 71.1122 57.2764C70.9244 57.6248 70.678 57.9325 70.373 58.1993C70.0681 58.4634 69.7115 58.6703 69.3031 58.82C68.8947 58.967 68.4414 59.0406 67.9432 59.0406C67.2081 59.0406 66.552 58.8704 65.9748 58.5301C65.3976 58.1898 64.9429 57.6983 64.6108 57.0558C64.2786 56.4133 64.1126 55.6428 64.1126 54.7444C64.1126 53.8432 64.28 53.0728 64.6149 52.433C64.9498 51.7904 65.4058 51.299 65.983 50.9587C66.5601 50.6184 67.2135 50.4482 67.9432 50.4482C68.4087 50.4482 68.8416 50.5136 69.2418 50.6442C69.642 50.7749 69.9987 50.9669 70.3118 51.2201C70.6249 51.4705 70.8822 51.7782 71.0836 52.143C71.2878 52.5051 71.4212 52.9189 71.4838 53.3845Z" fill="black"/>
<rect id="nunchuk-btn-Z" x="59.5" y="30.7144" width="17" height="13.5862" rx="2.5" fill="white" stroke="black"/>
<path d="M64.9697 41.4748V40.5315L69.2577 34.3813H64.9452V33.1112H71.1363V34.0545L66.8524 40.2048H71.1608V41.4748H64.9697Z" fill="black"/>
</svg>
