<svg width="57" height="112" viewBox="0 0 57 112" fill="none" xmlns="http://www.w3.org/2000/svg">
<rect x="4.5" y="4.5" width="31" height="99" rx="4.5" fill="white" stroke="black"/>
<rect id="wiimote-led-1" class="wiimote-led" x="11" y="86" width="3" height="3" rx="1" fill="black"/>
<rect id="wiimote-led-2" class="wiimote-led" x="16" y="86" width="3" height="3" rx="1" fill="black"/>
<rect id="wiimote-led-3" class="wiimote-led" x="21" y="86" width="3" height="3" rx="1" fill="black"/>
<rect id="wiimote-led-4" class="wiimote-led" x="26" y="86" width="3" height="3" rx="1" fill="black"/>
<path d="M13.585 99L11.2246 90.6364H12.854L14.361 96.7825H14.4386L16.0476 90.6364H17.53L19.1431 96.7866H19.2166L20.7235 90.6364H22.353L19.9925 99H18.4979L16.8235 93.1316H16.7582L15.0797 99H13.585ZM23.3382 99V92.7273H24.8165V99H23.3382ZM24.0815 91.837C23.8473 91.837 23.6458 91.7594 23.4771 91.6042C23.3083 91.4463 23.2239 91.2571 23.2239 91.0366C23.2239 90.8133 23.3083 90.6241 23.4771 90.4689C23.6458 90.311 23.8473 90.2321 24.0815 90.2321C24.3183 90.2321 24.5198 90.311 24.6859 90.4689C24.8547 90.6241 24.9391 90.8133 24.9391 91.0366C24.9391 91.2571 24.8547 91.4463 24.6859 91.6042C24.5198 91.7594 24.3183 91.837 24.0815 91.837ZM26.3367 99V92.7273H27.8151V99H26.3367ZM27.08 91.837C26.8459 91.837 26.6444 91.7594 26.4756 91.6042C26.3068 91.4463 26.2224 91.2571 26.2224 91.0366C26.2224 90.8133 26.3068 90.6241 26.4756 90.4689C26.6444 90.311 26.8459 90.2321 27.08 90.2321C27.3169 90.2321 27.5183 90.311 27.6844 90.4689C27.8532 90.6241 27.9376 90.8133 27.9376 91.0366C27.9376 91.2571 27.8532 91.4463 27.6844 91.6042C27.5183 91.7594 27.3169 91.837 27.08 91.837Z" fill="black"/>
<circle id="wiimote-btn-PLUS" cx="29" cy="57" r="3.6" fill="white" stroke="black" stroke-width="0.8"/>
<rect x="26.6" y="56.2" width="4.8" height="1.6" rx="0.4" fill="black"/>
<rect x="29.8" y="54.6" width="4.8" height="1.6" rx="0.4" transform="rotate(90 29.8 54.6)" fill="black"/>
<circle id="wiimote-btn-MINUS" cx="11" cy="57" r="3.6" fill="white" stroke="black" stroke-width="0.8"/>
<rect x="8.6" y="56.2" width="4.8" height="1.6" rx="0.4" fill="black"/>
<circle id="wiimote-btn-A" cx="20" cy="43.5" r="4.5" fill="white" stroke="black"/>
<path d="M18.3299 46H17.3981L19.4918 40.1818H20.506L22.5998 46H21.668L20.0231 41.2386H19.9776L18.3299 46ZM18.4862 43.7216H21.5089V44.4602H18.4862V43.7216Z" fill="black"/>
<circle id="wiimote-btn-HOME" cx="20" cy="57" r="3.6" fill="white" stroke="black" stroke-width="0.8"/>
<rect class="wiimote-home-icon-bg" x="18.25" y="56" width="3.5" height="2.8" fill="#0FC5FE"/>
<path class="wiimote-home-icon-roof" d="M20 54.6L22.4249 56.4375H17.5751L20 54.6Z" fill="#0FC5FE"/>
<rect class="wiimote-home-icon-door" x="19.3" y="56.7" width="1.4" height="1.4" fill="white"/>
<rect id="wiimote-btn-B" x="41.5" y="38.5" width="10" height="13" rx="2.5" fill="white" stroke="black"/>
<path d="M43.8249 49V40.6364H47.0266C47.631 40.6364 48.1333 40.7317 48.5336 40.9222C48.9365 41.1101 49.2373 41.3674 49.4361 41.6941C49.6375 42.0208 49.7383 42.391 49.7383 42.8049C49.7383 43.1452 49.6729 43.4365 49.5423 43.6788C49.4116 43.9184 49.236 44.113 49.0154 44.2628C48.7949 44.4125 48.5485 44.5201 48.2763 44.5854V44.6671C48.573 44.6834 48.8575 44.7746 49.1298 44.9407C49.4048 45.104 49.6294 45.3355 49.8036 45.6349C49.9779 45.9344 50.065 46.2965 50.065 46.7212C50.065 47.1541 49.9602 47.5434 49.7505 47.8892C49.5409 48.2322 49.2251 48.5031 48.8031 48.7019C48.3811 48.9006 47.8502 49 47.2104 49H43.8249ZM45.34 47.734H46.9695C47.5194 47.734 47.9155 47.6292 48.1578 47.4196C48.4029 47.2072 48.5254 46.935 48.5254 46.6028C48.5254 46.3551 48.4641 46.1318 48.3416 45.9331C48.2191 45.7316 48.0449 45.5737 47.8189 45.4593C47.5929 45.3423 47.3234 45.2837 47.0103 45.2837H45.34V47.734ZM45.34 44.1934H46.8388C47.1001 44.1934 47.3356 44.1457 47.5453 44.0504C47.7549 43.9524 47.9196 43.8149 48.0394 43.638C48.1619 43.4583 48.2232 43.2459 48.2232 43.0009C48.2232 42.6769 48.1088 42.4101 47.8801 42.2005C47.6542 41.9908 47.3179 41.886 46.8714 41.886H45.34V44.1934Z" fill="black"/>
<circle id="wiimote-btn-1" cx="20" cy="70" r="3.59091" fill="white" stroke="black" stroke-width="0.818181"/>
<path d="M20.6885 67.8347V72H19.9339V68.5689H19.9095L18.9353 69.1913V68.4998L19.9705 67.8347H20.6885Z" fill="black"/>
<circle id="wiimote-btn-2" cx="20" cy="79" r="3.59091" fill="white" stroke="black" stroke-width="0.818181"/>
<path d="M18.5916 81V80.4549L20.0376 79.0374C20.1759 78.8977 20.2912 78.7736 20.3834 78.6652C20.4756 78.5567 20.5447 78.4516 20.5908 78.3499C20.6369 78.2482 20.66 78.1398 20.66 78.0245C20.66 77.893 20.6302 77.7804 20.5705 77.6869C20.5108 77.592 20.4288 77.5188 20.3244 77.4672C20.22 77.4157 20.1014 77.3899 19.9685 77.3899C19.8315 77.3899 19.7115 77.4184 19.6085 77.4754C19.5054 77.531 19.4254 77.6103 19.3685 77.7133C19.3129 77.8164 19.2851 77.9391 19.2851 78.0815H18.5672C18.5672 77.8171 18.6275 77.5872 18.7482 77.392C18.8689 77.1967 19.0349 77.0456 19.2465 76.9384C19.4593 76.8313 19.7034 76.7778 19.9786 76.7778C20.258 76.7778 20.5034 76.83 20.7149 76.9344C20.9264 77.0388 21.0905 77.1818 21.2071 77.3635C21.325 77.5452 21.384 77.7526 21.384 77.9859C21.384 78.1418 21.3542 78.295 21.2945 78.4455C21.2349 78.596 21.1298 78.7628 20.9793 78.9458C20.8301 79.1289 20.6207 79.3506 20.3508 79.6109L19.6329 80.341V80.3695H21.4471V81H18.5916Z" fill="black"/>
</svg>
