<svg width="57" height="101" viewBox="0 0 57 101" fill="none" xmlns="http://www.w3.org/2000/svg">
<rect x="4.5" y="4.5" width="31" height="92" rx="4.5" fill="white" stroke="black"/>
<rect x="11" y="79" width="3" height="3" rx="1" fill="#0FC5FE"/>
<rect x="16" y="79" width="3" height="3" rx="1" fill="#0FC5FE"/>
<rect x="21" y="79" width="3" height="3" rx="1" fill="#0FC5FE"/>
<rect x="26" y="79" width="3" height="3" rx="1" fill="#0FC5FE"/>
<path d="M13.585 92L11.2246 83.6364H12.854L14.361 89.7825H14.4386L16.0476 83.6364H17.53L19.1431 89.7866H19.2166L20.7235 83.6364H22.353L19.9925 92H18.4979L16.8235 86.1316H16.7582L15.0797 92H13.585ZM23.3382 92V85.7273H24.8165V92H23.3382ZM24.0815 84.837C23.8473 84.837 23.6458 84.7594 23.4771 84.6042C23.3083 84.4463 23.2239 84.2571 23.2239 84.0366C23.2239 83.8133 23.3083 83.6241 23.4771 83.4689C23.6458 83.311 23.8473 83.2321 24.0815 83.2321C24.3183 83.2321 24.5198 83.311 24.6859 83.4689C24.8547 83.6241 24.9391 83.8133 24.9391 84.0366C24.9391 84.2571 24.8547 84.4463 24.6859 84.6042C24.5198 84.7594 24.3183 84.837 24.0815 84.837ZM26.3367 92V85.7273H27.8151V92H26.3367ZM27.08 84.837C26.8459 84.837 26.6444 84.7594 26.4756 84.6042C26.3068 84.4463 26.2224 84.2571 26.2224 84.0366C26.2224 83.8133 26.3068 83.6241 26.4756 83.4689C26.6444 83.311 26.8459 83.2321 27.08 83.2321C27.3169 83.2321 27.5183 83.311 27.6844 83.4689C27.8532 83.6241 27.9376 83.8133 27.9376 84.0366C27.9376 84.2571 27.8532 84.4463 27.6844 84.6042C27.5183 84.7594 27.3169 84.837 27.08 84.837Z" fill="black"/>
<circle id="wiimote-btn-PLUS" cx="29" cy="57" r="3.6" fill="white" stroke="black" stroke-width="0.8"/>
<rect x="26.6" y="56.2" width="4.8" height="1.6" rx="0.4" fill="black"/>
<rect x="28.2" y="59.4" width="4.8" height="1.6" rx="0.4" transform="rotate(-90 28.2 59.4)" fill="black"/>
<circle id="wiimote-btn-MINUS" cx="11" cy="57" r="3.6" fill="white" stroke="black" stroke-width="0.8"/>
<rect x="8.6" y="56.2" width="4.8" height="1.6" rx="0.4" fill="black"/>
<circle id="wiimote-btn-A" cx="20" cy="43.5" r="4.5" fill="white" stroke="black"/>
<path d="M18.3299 46H17.3981L19.4918 40.1818H20.506L22.5998 46H21.668L20.0231 41.2386H19.9776L18.3299 46ZM18.4862 43.7216H21.5089V44.4602H18.4862V43.7216Z" fill="black"/>
<circle id="wiimote-btn-HOME" cx="20" cy="57" r="3.6" fill="white" stroke="black" stroke-width="0.8"/>
<rect class="wiimote-home-icon-bg" x="18.25" y="56" width="3.5" height="2.8" fill="#0FC5FE"/>
<path class="wiimote-home-icon-roof" d="M20 54.6L22.4249 56.4375H17.5751L20 54.6Z" fill="#0FC5FE"/>
<rect class="wiimote-home-icon-door" x="19.3" y="56.7" width="1.4" height="1.4" fill="white"/>
<rect id="wiimote-btn-B" x="41.5" y="38.5" width="10" height="13" rx="2.5" fill="white" stroke="black"/>
<path d="M43.8249 49V40.6364H47.0266C47.631 40.6364 48.1333 40.7317 48.5336 40.9222C48.9365 41.1101 49.2373 41.3674 49.4361 41.6941C49.6375 42.0208 49.7383 42.391 49.7383 42.8049C49.7383 43.1452 49.6729 43.4365 49.5423 43.6788C49.4116 43.9184 49.236 44.113 49.0154 44.2628C48.7949 44.4125 48.5485 44.5201 48.2763 44.5854V44.6671C48.573 44.6834 48.8575 44.7746 49.1298 44.9407C49.4048 45.104 49.6294 45.3355 49.8036 45.6349C49.9779 45.9344 50.065 46.2965 50.065 46.7212C50.065 47.1541 49.9602 47.5434 49.7505 47.8892C49.5409 48.2322 49.2251 48.5031 48.8031 48.7019C48.3811 48.9006 47.8502 49 47.2104 49H43.8249ZM45.34 47.734H46.9695C47.5194 47.734 47.9155 47.6292 48.1578 47.4196C48.4029 47.2072 48.5254 46.935 48.5254 46.6028C48.5254 46.3551 48.4641 46.1318 48.3416 45.9331C48.2191 45.7316 48.0449 45.5737 47.8189 45.4593C47.5929 45.3423 47.3234 45.2837 47.0103 45.2837H45.34V47.734ZM45.34 44.1934H46.8388C47.1001 44.1934 47.3356 44.1457 47.5453 44.0504C47.7549 43.9524 47.9196 43.8149 48.0394 43.638C48.1619 43.4583 48.2232 43.2459 48.2232 43.0009C48.2232 42.6769 48.1088 42.4101 47.8801 42.2005C47.6542 41.9908 47.3179 41.886 46.8714 41.886H45.34V44.1934Z" fill="black"/>
</svg>
